<?xml version="1.0" encoding="utf-8"?>
<!-- Generator: Adobe Illustrator 24.0.0, SVG Export Plug-In . SVG Version: 6.00 Build 0)  -->
<svg version="1.1" id="Layer_1" xmlns="http://www.w3.org/2000/svg" xmlns:xlink="http://www.w3.org/1999/xlink" x="0px" y="0px"
	 viewBox="0 0 1370 312" style="enable-background:new 0 0 1370 312;" xml:space="preserve">
<style type="text/css">
	.st0{fill:url(#SVGID_1_);}
	.st1{fill:url(#SVGID_2_);}
	.st2{fill:url(#SVGID_3_);}
	.st3{fill:url(#SVGID_4_);}
	.st4{fill:url(#SVGID_5_);}
	.st5{fill:url(#SVGID_6_);}
	.st6{fill:url(#SVGID_7_);}
	.st7{fill:url(#SVGID_8_);}
	.st8{fill:#57AA0F;}
	.st9{fill:url(#SVGID_9_);}
	.st10{fill:url(#SVGID_10_);}
	.st11{fill:url(#SVGID_11_);}
	.st12{fill:url(#SVGID_12_);}
	.st13{stroke:#000000;stroke-width:5;stroke-miterlimit:10;}
	.st14{fill:url(#SVGID_13_);}
	.st15{fill:url(#SVGID_14_);}
	.st16{fill:url(#SVGID_15_);}
	.st17{fill:url(#SVGID_16_);}
	.st18{fill:url(#SVGID_17_);}
	.st19{fill:url(#SVGID_18_);}
	.st20{fill:url(#SVGID_19_);}
	.st21{fill:url(#SVGID_20_);}
	.st22{stroke:#000000;stroke-width:8;stroke-miterlimit:10;}
	.st23{fill:url(#SVGID_21_);}
	.st24{fill:url(#SVGID_22_);}
	.st25{fill:url(#SVGID_23_);}
	.st26{fill:url(#SVGID_24_);}
	.st27{fill:url(#SVGID_25_);}
	.st28{fill:url(#SVGID_26_);}
	.st29{fill:url(#SVGID_27_);}
	.st30{fill:url(#SVGID_28_);}
	.st31{fill:#595959;stroke:#595959;stroke-width:8;stroke-miterlimit:10;}
	.st32{fill:url(#SVGID_29_);}
	.st33{fill:url(#SVGID_30_);}
	.st34{fill:url(#SVGID_31_);}
	.st35{fill:url(#SVGID_32_);}
	.st36{fill:url(#SVGID_33_);}
	.st37{fill:url(#SVGID_34_);}
	.st38{fill:url(#SVGID_35_);}
	.st39{fill:url(#SVGID_36_);}
</style>
<g>
	<linearGradient id="SVGID_1_" gradientUnits="userSpaceOnUse" x1="562.493" y1="180.0912" x2="780.3732" y2="180.0912">
		<stop  offset="0.2286" style="stop-color:#DD1010"/>
		<stop  offset="1" style="stop-color:#ED1C24"/>
	</linearGradient>
	<path class="st0" d="M562.49,305.74c0.05-1.18,0.13-2.36,0.13-3.54c0.01-62.98,0.01-125.97,0.01-188.95c0-1.4,0-2.8,0-4.54
		c18.02,0,35.74,0,53.94,0c0-18.15,0-35.96,0-53.97c1.27-0.1,2.07-0.21,2.86-0.21c14.22-0.01,28.45-0.23,42.67,0.05
		c55.25,1.08,99.96,36.33,113.51,90.81c11.14,44.78,2.98,86-27.62,121.38c-19.38,22.4-44.76,34.02-74,37.48
		c-4.67,0.55-9.36,0.99-14.04,1.48C627.47,305.74,594.98,305.74,562.49,305.74z M589.66,135.52c-0.09,1.06-0.18,1.64-0.18,2.22
		c-0.01,45.9,0.01,91.81-0.07,137.71c-0.01,2.97,1.37,3.2,3.69,3.19c13.16-0.06,26.32,0.13,39.48-0.07
		c13.49-0.21,27.08,0.14,40.44-1.38c23.94-2.73,44.14-13.44,58.91-32.78c20.78-27.21,25.87-58.01,18.18-90.88
		c-6.07-25.92-20.14-46.56-43.61-60.05c-19.34-11.12-40.48-13.15-62.21-11.92c-0.18,0.01-0.35,0.29-0.75,0.63
		c0,7.86,0.04,15.92-0.03,23.97c-0.01,1.98,1,2.37,2.66,2.37c5.45,0.01,10.92-0.15,16.36,0.17c19.62,1.17,36.62,8.15,48.46,24.4
		c15.54,21.33,18.86,45.13,11.63,70.27c-8.3,28.86-29.17,45.72-59.08,47.45c-15,0.87-30.09,0.37-45.13,0.46
		c-0.53,0-1.06-0.3-1.91-0.56c0-38.46,0-76.83,0-115.22C607.41,135.52,598.68,135.52,589.66,135.52z M644.24,134.95
		c-0.38,1.35-0.55,1.68-0.55,2.02c-0.06,28.32-0.09,56.65-0.18,84.97c-0.01,2.13,0.99,2.63,2.83,2.57
		c6.15-0.22,12.35,0.09,18.43-0.67c14.52-1.81,25.21-9.3,30.67-23.12c5.34-13.53,5.35-27.31,0.21-40.93
		c-4.86-12.89-14.26-20.94-27.74-23.28C660.17,135.16,652.16,135.42,644.24,134.95z"/>
	<linearGradient id="SVGID_2_" gradientUnits="userSpaceOnUse" x1="562.4744" y1="180.0912" x2="780.3546" y2="180.0912">
		<stop  offset="0.2286" style="stop-color:#DD1010"/>
		<stop  offset="1" style="stop-color:#ED1C24"/>
	</linearGradient>
	<path class="st1" d="M562.47,305.74c0.05-1.18,0.13-2.36,0.13-3.54c0.01-62.98,0.01-125.97,0.01-188.95c0-1.4,0-2.8,0-4.54
		c18.02,0,35.74,0,53.94,0c0-18.15,0-35.96,0-53.97c1.27-0.1,2.07-0.21,2.86-0.21c14.22-0.01,28.45-0.23,42.67,0.05
		c55.25,1.08,99.96,36.33,113.51,90.81c11.14,44.78,2.98,86-27.62,121.38c-19.38,22.4-44.76,34.02-74,37.48
		c-4.67,0.55-9.36,0.99-14.04,1.48C627.45,305.74,594.96,305.74,562.47,305.74z M616.49,135.52c-9.1,0-17.83,0-26.85,0
		c-0.09,1.06-0.18,1.64-0.18,2.22c-0.01,45.9,0.01,91.81-0.07,137.71c-0.01,2.97,1.37,3.2,3.69,3.19
		c13.16-0.06,26.32,0.13,39.48-0.07c13.49-0.21,27.08,0.14,40.44-1.38c23.94-2.73,44.14-13.44,58.91-32.78
		c20.78-27.21,25.87-58.01,18.18-90.88c-6.07-25.92-20.14-46.56-43.61-60.05C687.14,82.36,666,80.33,644.27,81.57
		c-0.18,0.01-0.35,0.29-0.75,0.63c0,7.86,0.04,15.92-0.03,23.97"/>
	<linearGradient id="SVGID_3_" gradientUnits="userSpaceOnUse" x1="821.6875" y1="179.9881" x2="979.0881" y2="179.9881">
		<stop  offset="0.2286" style="stop-color:#DD1010"/>
		<stop  offset="1" style="stop-color:#ED1C24"/>
	</linearGradient>
	<path class="st2" d="M900.52,100.65c43.43,0.03,78.6,35.67,78.57,79.64c-0.03,43.3-35.91,79.21-78.98,79.04
		c-44-0.18-78.95-35.95-78.41-81.22C822.2,135.36,857.44,100.34,900.52,100.65z M848.89,179.85c-0.07,28.03,23.12,51.9,50.52,52
		c28.93,0.11,52.22-22.83,52.37-51.56c0.15-28.66-23.03-52.38-51.22-52.43C872.31,127.81,848.96,151.3,848.89,179.85z"/>
	<linearGradient id="SVGID_4_" gradientUnits="userSpaceOnUse" x1="154.7317" y1="179.9891" x2="312.1107" y2="179.9891">
		<stop  offset="0.2286" style="stop-color:#DD1010"/>
		<stop  offset="1" style="stop-color:#ED1C24"/>
	</linearGradient>
	<path class="st3" d="M233.64,100.65c43.34,0.06,78.5,35.61,78.47,79.33c-0.03,43.72-35.74,79.6-78.96,79.34
		c-43.55-0.26-78.48-35.83-78.41-79.84C154.8,135.83,190.07,100.59,233.64,100.65z M233.29,231.85c28.37,0,51.65-23.46,51.63-52.02
		c-0.01-28.32-23.37-51.94-51.39-51.97c-28.13-0.03-51.76,23.76-51.72,52.09C181.84,208.17,205.33,231.85,233.29,231.85z"/>
	<linearGradient id="SVGID_5_" gradientUnits="userSpaceOnUse" x1="358.9206" y1="179.9763" x2="516.268" y2="179.9763">
		<stop  offset="0.2286" style="stop-color:#DD1010"/>
		<stop  offset="1" style="stop-color:#ED1C24"/>
	</linearGradient>
	<path class="st4" d="M358.92,179.97c0-44.06,35.02-79.26,78.72-79.34c44.2-0.08,79.1,37.18,78.62,80.3
		c-0.47,42.8-35.92,78.44-78.87,78.4C394.14,259.28,358.92,223.67,358.92,179.97z M437.15,231.85c28.63,0.03,52.08-23.48,51.97-52.1
		c-0.12-28.32-23.51-51.87-51.52-51.89c-27.97-0.02-51.54,23.63-51.62,51.82C385.88,207.94,409.3,231.82,437.15,231.85z"/>
	<linearGradient id="SVGID_6_" gradientUnits="userSpaceOnUse" x1="1025.53" y1="179.9115" x2="1180.9683" y2="179.9115">
		<stop  offset="0.2286" style="stop-color:#DD1010"/>
		<stop  offset="1" style="stop-color:#ED1C24"/>
	</linearGradient>
	<path class="st5" d="M1180.97,196.89c-3.28,15.31-10.34,28.08-20.89,38.85c-15.16,15.46-33.85,23.49-55.41,23.48
		c-47.98-0.02-78.8-39.41-79.13-78.01c-0.38-44.28,34.53-80.27,77.97-80.61c43.22-0.33,72.69,33.59,77.05,62.47
		c-4.16,0-8.26,0-12.35,0c-4.03,0-8.07-0.15-12.09,0.06c-2.42,0.12-3.51-0.76-4.43-2.97c-8.23-20.01-27.24-32.55-48.73-32.3
		c-24.55,0.29-46.83,21-49.82,45.34c-3.46,28.16,16.57,54.38,44.95,58.44c21.38,3.06,44.6-10.27,53.37-31.45
		c1.13-2.74,2.5-3.4,5.2-3.35C1164.58,197,1172.5,196.89,1180.97,196.89z"/>
	<linearGradient id="SVGID_7_" gradientUnits="userSpaceOnUse" x1="1227.8661" y1="179.7943" x2="1350.8495" y2="179.7943">
		<stop  offset="0.2286" style="stop-color:#DD1010"/>
		<stop  offset="1" style="stop-color:#ED1C24"/>
	</linearGradient>
	<path class="st6" d="M1350.85,257.19c-11.52,0-22.19,0.07-32.85-0.1c-1.25-0.02-2.81-1.09-3.67-2.14
		c-18-21.72-35.93-43.51-53.87-65.28c-1.71-2.07-3.43-4.14-5.95-6.01c0,24.42,0,48.83,0,73.35c-9.18,0-17.78,0-26.64,0
		c0-51.46,0-102.75,0-154.57c5.86,0,11.63,0,17.4,0c9.15,0,9.15,0,9.15,9.01c0,20.04,0,40.09,0,60.13c0,1.27,0,2.54,0,4.71
		c1.29-1.4,2.03-2.08,2.62-2.86c17.37-22.68,34.74-45.35,52.04-68.08c1.58-2.08,3.21-3.03,5.91-2.97c8.65,0.18,17.3,0.06,25.96,0.07
		c1.15,0,2.29,0.1,4.11,0.18c-1.08,1.47-1.8,2.49-2.55,3.47c-17.87,23.34-35.7,46.71-53.67,69.97c-1.81,2.35-1.76,3.68,0.13,5.96
		c19.85,23.89,39.56,47.89,59.31,71.86C1349.01,254.78,1349.69,255.7,1350.85,257.19z"/>
	<linearGradient id="SVGID_8_" gradientUnits="userSpaceOnUse" x1="19.1505" y1="179.6883" x2="113.454" y2="179.6883">
		<stop  offset="0.2286" style="stop-color:#DD1010"/>
		<stop  offset="1" style="stop-color:#ED1C24"/>
	</linearGradient>
	<path class="st7" d="M113.45,102.62c0,9.16,0,17.9,0,27.05c-22.25,0-44.36,0-66.69,0c0,12.32,0,24.23,0,36.5c15.6,0,31.2,0,47.15,0
		c0,9.04,0,17.74,0,27c-15.49,0-31.17,0-47.29,0c0,21.57,0,42.6,0,63.82c-9.28,0-18.11,0-27.4,0c0-1.4,0-2.67,0-3.94
		c0-48.76,0.03-97.52-0.07-146.28c-0.01-3.36,0.81-4.42,4.3-4.41c28.69,0.14,57.39,0.08,86.08,0.08
		C110.7,102.46,111.87,102.56,113.45,102.62z"/>
	<g>
		<g>
			<path class="st8" d="M602.42,94.01c-28.66,4.76-56.36-3.22-71.26-20.54c-14.9-17.32-16.56-43.44-4.26-67.21
				C571.98,20.03,609.97,43.56,602.42,94.01"/>
		</g>
	</g>
</g>
</svg>
